%FSLAX45Y45*%
G04 Gerber Fmt 4.5, Leading zero omitted, Abs format (unit mm)*
G04 Created by KiCad (PCBNEW (6.0.1)) date 2022-12-28 11:06:09*
%MOMM*%
%LPD*%
G01*
G04 APERTURE LIST*
%TA.AperFunction,Profile*%
%ADD10C,0.100000*%
%TD*%
%ADD11C,0.200000*%
%ADD12C,0.040000*%
%ADD13C,0.102000*%
%ADD14C,0.141000*%
G04 APERTURE END LIST*
D10*
X18000000Y-11100000D02*
G75*
G03*
X18400000Y-10700000I0J400000D01*
G01*
X12700000Y-7300000D02*
X18000000Y-7300000D01*
X12300000Y-10700000D02*
G75*
G03*
X12700000Y-11100000I400000J0D01*
G01*
X12700000Y-7300000D02*
G75*
G03*
X12300000Y-7700000I0J-400000D01*
G01*
X12300000Y-7700000D02*
X12300000Y-10700000D01*
X18400000Y-7700000D02*
G75*
G03*
X18000000Y-7300000I-400000J0D01*
G01*
X18400000Y-7700000D02*
X18400000Y-10700000D01*
X12700000Y-11100000D02*
X18000000Y-11100000D01*
D11*
D12*
X13143094Y-9951906D02*
X13183094Y-9991906D01*
X13183094Y-9951906D02*
X13143094Y-9991906D01*
D13*
X13027844Y-8143944D02*
G75*
G03*
X13027844Y-8143944I-51000J0D01*
G01*
X13327844Y-8143944D02*
G75*
G03*
X13327844Y-8143944I-51000J0D01*
G01*
D14*
X14003844Y-10289945D02*
X14003844Y-10430945D01*
X13933344Y-10360445D02*
X14074344Y-10360445D01*
X14511844Y-10289945D02*
X14511844Y-10430945D01*
X14441344Y-10360445D02*
X14582344Y-10360445D01*
D11*
X12552619Y-11415476D02*
X12552619Y-11215476D01*
X12600238Y-11215476D01*
X12628809Y-11225000D01*
X12647857Y-11244048D01*
X12657381Y-11263095D01*
X12666905Y-11301190D01*
X12666905Y-11329762D01*
X12657381Y-11367857D01*
X12647857Y-11386905D01*
X12628809Y-11405952D01*
X12600238Y-11415476D01*
X12552619Y-11415476D01*
X12752619Y-11415476D02*
X12752619Y-11282143D01*
X12752619Y-11320238D02*
X12762143Y-11301190D01*
X12771667Y-11291667D01*
X12790714Y-11282143D01*
X12809762Y-11282143D01*
X12876428Y-11415476D02*
X12876428Y-11282143D01*
X12876428Y-11215476D02*
X12866905Y-11225000D01*
X12876428Y-11234524D01*
X12885952Y-11225000D01*
X12876428Y-11215476D01*
X12876428Y-11234524D01*
X13000238Y-11415476D02*
X12981190Y-11405952D01*
X12971667Y-11386905D01*
X12971667Y-11215476D01*
X13105000Y-11415476D02*
X13085952Y-11405952D01*
X13076428Y-11386905D01*
X13076428Y-11215476D01*
X13333571Y-11415476D02*
X13333571Y-11215476D01*
X13400238Y-11358333D01*
X13466905Y-11215476D01*
X13466905Y-11415476D01*
X13647857Y-11415476D02*
X13647857Y-11310714D01*
X13638333Y-11291667D01*
X13619286Y-11282143D01*
X13581190Y-11282143D01*
X13562143Y-11291667D01*
X13647857Y-11405952D02*
X13628809Y-11415476D01*
X13581190Y-11415476D01*
X13562143Y-11405952D01*
X13552619Y-11386905D01*
X13552619Y-11367857D01*
X13562143Y-11348809D01*
X13581190Y-11339286D01*
X13628809Y-11339286D01*
X13647857Y-11329762D01*
X13743095Y-11282143D02*
X13743095Y-11482143D01*
X13743095Y-11291667D02*
X13762143Y-11282143D01*
X13800238Y-11282143D01*
X13819286Y-11291667D01*
X13828809Y-11301190D01*
X13838333Y-11320238D01*
X13838333Y-11377381D01*
X13828809Y-11396428D01*
X13819286Y-11405952D01*
X13800238Y-11415476D01*
X13762143Y-11415476D01*
X13743095Y-11405952D01*
X13924048Y-11396428D02*
X13933571Y-11405952D01*
X13924048Y-11415476D01*
X13914524Y-11405952D01*
X13924048Y-11396428D01*
X13924048Y-11415476D01*
X13924048Y-11291667D02*
X13933571Y-11301190D01*
X13924048Y-11310714D01*
X13914524Y-11301190D01*
X13924048Y-11291667D01*
X13924048Y-11310714D01*
D12*
X12255000Y-11725000D02*
X12295000Y-11765000D01*
X12295000Y-11725000D02*
X12255000Y-11765000D01*
D11*
X12590714Y-11635476D02*
X12609762Y-11635476D01*
X12628809Y-11645000D01*
X12638333Y-11654524D01*
X12647857Y-11673571D01*
X12657381Y-11711667D01*
X12657381Y-11759286D01*
X12647857Y-11797381D01*
X12638333Y-11816428D01*
X12628809Y-11825952D01*
X12609762Y-11835476D01*
X12590714Y-11835476D01*
X12571667Y-11825952D01*
X12562143Y-11816428D01*
X12552619Y-11797381D01*
X12543095Y-11759286D01*
X12543095Y-11711667D01*
X12552619Y-11673571D01*
X12562143Y-11654524D01*
X12571667Y-11645000D01*
X12590714Y-11635476D01*
X12743095Y-11816428D02*
X12752619Y-11825952D01*
X12743095Y-11835476D01*
X12733571Y-11825952D01*
X12743095Y-11816428D01*
X12743095Y-11835476D01*
X12924048Y-11702143D02*
X12924048Y-11835476D01*
X12876428Y-11625952D02*
X12828809Y-11768809D01*
X12952619Y-11768809D01*
X13066905Y-11635476D02*
X13085952Y-11635476D01*
X13105000Y-11645000D01*
X13114524Y-11654524D01*
X13124048Y-11673571D01*
X13133571Y-11711667D01*
X13133571Y-11759286D01*
X13124048Y-11797381D01*
X13114524Y-11816428D01*
X13105000Y-11825952D01*
X13085952Y-11835476D01*
X13066905Y-11835476D01*
X13047857Y-11825952D01*
X13038333Y-11816428D01*
X13028809Y-11797381D01*
X13019286Y-11759286D01*
X13019286Y-11711667D01*
X13028809Y-11673571D01*
X13038333Y-11654524D01*
X13047857Y-11645000D01*
X13066905Y-11635476D01*
X13257381Y-11635476D02*
X13276428Y-11635476D01*
X13295476Y-11645000D01*
X13305000Y-11654524D01*
X13314524Y-11673571D01*
X13324048Y-11711667D01*
X13324048Y-11759286D01*
X13314524Y-11797381D01*
X13305000Y-11816428D01*
X13295476Y-11825952D01*
X13276428Y-11835476D01*
X13257381Y-11835476D01*
X13238333Y-11825952D01*
X13228809Y-11816428D01*
X13219286Y-11797381D01*
X13209762Y-11759286D01*
X13209762Y-11711667D01*
X13219286Y-11673571D01*
X13228809Y-11654524D01*
X13238333Y-11645000D01*
X13257381Y-11635476D01*
X13409762Y-11835476D02*
X13409762Y-11702143D01*
X13409762Y-11721190D02*
X13419286Y-11711667D01*
X13438333Y-11702143D01*
X13466905Y-11702143D01*
X13485952Y-11711667D01*
X13495476Y-11730714D01*
X13495476Y-11835476D01*
X13495476Y-11730714D02*
X13505000Y-11711667D01*
X13524048Y-11702143D01*
X13552619Y-11702143D01*
X13571667Y-11711667D01*
X13581190Y-11730714D01*
X13581190Y-11835476D01*
X13676428Y-11835476D02*
X13676428Y-11702143D01*
X13676428Y-11721190D02*
X13685952Y-11711667D01*
X13705000Y-11702143D01*
X13733571Y-11702143D01*
X13752619Y-11711667D01*
X13762143Y-11730714D01*
X13762143Y-11835476D01*
X13762143Y-11730714D02*
X13771667Y-11711667D01*
X13790714Y-11702143D01*
X13819286Y-11702143D01*
X13838333Y-11711667D01*
X13847857Y-11730714D01*
X13847857Y-11835476D01*
X14238333Y-11625952D02*
X14066905Y-11883095D01*
X14495476Y-11635476D02*
X14514524Y-11635476D01*
X14533571Y-11645000D01*
X14543095Y-11654524D01*
X14552619Y-11673571D01*
X14562143Y-11711667D01*
X14562143Y-11759286D01*
X14552619Y-11797381D01*
X14543095Y-11816428D01*
X14533571Y-11825952D01*
X14514524Y-11835476D01*
X14495476Y-11835476D01*
X14476428Y-11825952D01*
X14466905Y-11816428D01*
X14457381Y-11797381D01*
X14447857Y-11759286D01*
X14447857Y-11711667D01*
X14457381Y-11673571D01*
X14466905Y-11654524D01*
X14476428Y-11645000D01*
X14495476Y-11635476D01*
X14647857Y-11816428D02*
X14657381Y-11825952D01*
X14647857Y-11835476D01*
X14638333Y-11825952D01*
X14647857Y-11816428D01*
X14647857Y-11835476D01*
X14781190Y-11635476D02*
X14800238Y-11635476D01*
X14819286Y-11645000D01*
X14828809Y-11654524D01*
X14838333Y-11673571D01*
X14847857Y-11711667D01*
X14847857Y-11759286D01*
X14838333Y-11797381D01*
X14828809Y-11816428D01*
X14819286Y-11825952D01*
X14800238Y-11835476D01*
X14781190Y-11835476D01*
X14762143Y-11825952D01*
X14752619Y-11816428D01*
X14743095Y-11797381D01*
X14733571Y-11759286D01*
X14733571Y-11711667D01*
X14743095Y-11673571D01*
X14752619Y-11654524D01*
X14762143Y-11645000D01*
X14781190Y-11635476D01*
X15038333Y-11835476D02*
X14924048Y-11835476D01*
X14981190Y-11835476D02*
X14981190Y-11635476D01*
X14962143Y-11664048D01*
X14943095Y-11683095D01*
X14924048Y-11692619D01*
X15219286Y-11635476D02*
X15124048Y-11635476D01*
X15114524Y-11730714D01*
X15124048Y-11721190D01*
X15143095Y-11711667D01*
X15190714Y-11711667D01*
X15209762Y-11721190D01*
X15219286Y-11730714D01*
X15228809Y-11749762D01*
X15228809Y-11797381D01*
X15219286Y-11816428D01*
X15209762Y-11825952D01*
X15190714Y-11835476D01*
X15143095Y-11835476D01*
X15124048Y-11825952D01*
X15114524Y-11816428D01*
X15295476Y-11635476D02*
X15428809Y-11635476D01*
X15343095Y-11835476D01*
X15495476Y-11635476D02*
X15495476Y-11673571D01*
X15571667Y-11635476D02*
X15571667Y-11673571D01*
X15866905Y-11911667D02*
X15857381Y-11902143D01*
X15838333Y-11873571D01*
X15828809Y-11854524D01*
X15819286Y-11825952D01*
X15809762Y-11778333D01*
X15809762Y-11740238D01*
X15819286Y-11692619D01*
X15828809Y-11664048D01*
X15838333Y-11645000D01*
X15857381Y-11616428D01*
X15866905Y-11606905D01*
X16047857Y-11835476D02*
X15933571Y-11835476D01*
X15990714Y-11835476D02*
X15990714Y-11635476D01*
X15971667Y-11664048D01*
X15952619Y-11683095D01*
X15933571Y-11692619D01*
X16285952Y-11835476D02*
X16285952Y-11635476D01*
X16371667Y-11835476D02*
X16371667Y-11730714D01*
X16362143Y-11711667D01*
X16343095Y-11702143D01*
X16314524Y-11702143D01*
X16295476Y-11711667D01*
X16285952Y-11721190D01*
X16495476Y-11835476D02*
X16476428Y-11825952D01*
X16466905Y-11816428D01*
X16457381Y-11797381D01*
X16457381Y-11740238D01*
X16466905Y-11721190D01*
X16476428Y-11711667D01*
X16495476Y-11702143D01*
X16524048Y-11702143D01*
X16543095Y-11711667D01*
X16552619Y-11721190D01*
X16562143Y-11740238D01*
X16562143Y-11797381D01*
X16552619Y-11816428D01*
X16543095Y-11825952D01*
X16524048Y-11835476D01*
X16495476Y-11835476D01*
X16676428Y-11835476D02*
X16657381Y-11825952D01*
X16647857Y-11806905D01*
X16647857Y-11635476D01*
X16828810Y-11825952D02*
X16809762Y-11835476D01*
X16771667Y-11835476D01*
X16752619Y-11825952D01*
X16743095Y-11806905D01*
X16743095Y-11730714D01*
X16752619Y-11711667D01*
X16771667Y-11702143D01*
X16809762Y-11702143D01*
X16828810Y-11711667D01*
X16838333Y-11730714D01*
X16838333Y-11749762D01*
X16743095Y-11768809D01*
X16905000Y-11911667D02*
X16914524Y-11902143D01*
X16933571Y-11873571D01*
X16943095Y-11854524D01*
X16952619Y-11825952D01*
X16962143Y-11778333D01*
X16962143Y-11740238D01*
X16952619Y-11692619D01*
X16943095Y-11664048D01*
X16933571Y-11645000D01*
X16914524Y-11616428D01*
X16905000Y-11606905D01*
D13*
X12295000Y-12009000D02*
G75*
G03*
X12295000Y-12009000I-51000J0D01*
G01*
D11*
X12657381Y-12099476D02*
X12543095Y-12099476D01*
X12600238Y-12099476D02*
X12600238Y-11899476D01*
X12581190Y-11928048D01*
X12562143Y-11947095D01*
X12543095Y-11956619D01*
X12743095Y-12080428D02*
X12752619Y-12089952D01*
X12743095Y-12099476D01*
X12733571Y-12089952D01*
X12743095Y-12080428D01*
X12743095Y-12099476D01*
X12876428Y-11899476D02*
X12895476Y-11899476D01*
X12914524Y-11909000D01*
X12924048Y-11918524D01*
X12933571Y-11937571D01*
X12943095Y-11975667D01*
X12943095Y-12023286D01*
X12933571Y-12061381D01*
X12924048Y-12080428D01*
X12914524Y-12089952D01*
X12895476Y-12099476D01*
X12876428Y-12099476D01*
X12857381Y-12089952D01*
X12847857Y-12080428D01*
X12838333Y-12061381D01*
X12828809Y-12023286D01*
X12828809Y-11975667D01*
X12838333Y-11937571D01*
X12847857Y-11918524D01*
X12857381Y-11909000D01*
X12876428Y-11899476D01*
X13019286Y-11918524D02*
X13028809Y-11909000D01*
X13047857Y-11899476D01*
X13095476Y-11899476D01*
X13114524Y-11909000D01*
X13124048Y-11918524D01*
X13133571Y-11937571D01*
X13133571Y-11956619D01*
X13124048Y-11985190D01*
X13009762Y-12099476D01*
X13133571Y-12099476D01*
X13257381Y-11899476D02*
X13276428Y-11899476D01*
X13295476Y-11909000D01*
X13305000Y-11918524D01*
X13314524Y-11937571D01*
X13324048Y-11975667D01*
X13324048Y-12023286D01*
X13314524Y-12061381D01*
X13305000Y-12080428D01*
X13295476Y-12089952D01*
X13276428Y-12099476D01*
X13257381Y-12099476D01*
X13238333Y-12089952D01*
X13228809Y-12080428D01*
X13219286Y-12061381D01*
X13209762Y-12023286D01*
X13209762Y-11975667D01*
X13219286Y-11937571D01*
X13228809Y-11918524D01*
X13238333Y-11909000D01*
X13257381Y-11899476D01*
X13409762Y-12099476D02*
X13409762Y-11966143D01*
X13409762Y-11985190D02*
X13419286Y-11975667D01*
X13438333Y-11966143D01*
X13466905Y-11966143D01*
X13485952Y-11975667D01*
X13495476Y-11994714D01*
X13495476Y-12099476D01*
X13495476Y-11994714D02*
X13505000Y-11975667D01*
X13524048Y-11966143D01*
X13552619Y-11966143D01*
X13571667Y-11975667D01*
X13581190Y-11994714D01*
X13581190Y-12099476D01*
X13676428Y-12099476D02*
X13676428Y-11966143D01*
X13676428Y-11985190D02*
X13685952Y-11975667D01*
X13705000Y-11966143D01*
X13733571Y-11966143D01*
X13752619Y-11975667D01*
X13762143Y-11994714D01*
X13762143Y-12099476D01*
X13762143Y-11994714D02*
X13771667Y-11975667D01*
X13790714Y-11966143D01*
X13819286Y-11966143D01*
X13838333Y-11975667D01*
X13847857Y-11994714D01*
X13847857Y-12099476D01*
X14238333Y-11889952D02*
X14066905Y-12147095D01*
X14495476Y-11899476D02*
X14514524Y-11899476D01*
X14533571Y-11909000D01*
X14543095Y-11918524D01*
X14552619Y-11937571D01*
X14562143Y-11975667D01*
X14562143Y-12023286D01*
X14552619Y-12061381D01*
X14543095Y-12080428D01*
X14533571Y-12089952D01*
X14514524Y-12099476D01*
X14495476Y-12099476D01*
X14476428Y-12089952D01*
X14466905Y-12080428D01*
X14457381Y-12061381D01*
X14447857Y-12023286D01*
X14447857Y-11975667D01*
X14457381Y-11937571D01*
X14466905Y-11918524D01*
X14476428Y-11909000D01*
X14495476Y-11899476D01*
X14647857Y-12080428D02*
X14657381Y-12089952D01*
X14647857Y-12099476D01*
X14638333Y-12089952D01*
X14647857Y-12080428D01*
X14647857Y-12099476D01*
X14781190Y-11899476D02*
X14800238Y-11899476D01*
X14819286Y-11909000D01*
X14828809Y-11918524D01*
X14838333Y-11937571D01*
X14847857Y-11975667D01*
X14847857Y-12023286D01*
X14838333Y-12061381D01*
X14828809Y-12080428D01*
X14819286Y-12089952D01*
X14800238Y-12099476D01*
X14781190Y-12099476D01*
X14762143Y-12089952D01*
X14752619Y-12080428D01*
X14743095Y-12061381D01*
X14733571Y-12023286D01*
X14733571Y-11975667D01*
X14743095Y-11937571D01*
X14752619Y-11918524D01*
X14762143Y-11909000D01*
X14781190Y-11899476D01*
X15019286Y-11966143D02*
X15019286Y-12099476D01*
X14971667Y-11889952D02*
X14924048Y-12032809D01*
X15047857Y-12032809D01*
X15162143Y-11899476D02*
X15181190Y-11899476D01*
X15200238Y-11909000D01*
X15209762Y-11918524D01*
X15219286Y-11937571D01*
X15228809Y-11975667D01*
X15228809Y-12023286D01*
X15219286Y-12061381D01*
X15209762Y-12080428D01*
X15200238Y-12089952D01*
X15181190Y-12099476D01*
X15162143Y-12099476D01*
X15143095Y-12089952D01*
X15133571Y-12080428D01*
X15124048Y-12061381D01*
X15114524Y-12023286D01*
X15114524Y-11975667D01*
X15124048Y-11937571D01*
X15133571Y-11918524D01*
X15143095Y-11909000D01*
X15162143Y-11899476D01*
X15305000Y-11918524D02*
X15314524Y-11909000D01*
X15333571Y-11899476D01*
X15381190Y-11899476D01*
X15400238Y-11909000D01*
X15409762Y-11918524D01*
X15419286Y-11937571D01*
X15419286Y-11956619D01*
X15409762Y-11985190D01*
X15295476Y-12099476D01*
X15419286Y-12099476D01*
X15495476Y-11899476D02*
X15495476Y-11937571D01*
X15571667Y-11899476D02*
X15571667Y-11937571D01*
X15866905Y-12175667D02*
X15857381Y-12166143D01*
X15838333Y-12137571D01*
X15828809Y-12118524D01*
X15819286Y-12089952D01*
X15809762Y-12042333D01*
X15809762Y-12004238D01*
X15819286Y-11956619D01*
X15828809Y-11928048D01*
X15838333Y-11909000D01*
X15857381Y-11880428D01*
X15866905Y-11870905D01*
X15933571Y-11918524D02*
X15943095Y-11909000D01*
X15962143Y-11899476D01*
X16009762Y-11899476D01*
X16028809Y-11909000D01*
X16038333Y-11918524D01*
X16047857Y-11937571D01*
X16047857Y-11956619D01*
X16038333Y-11985190D01*
X15924048Y-12099476D01*
X16047857Y-12099476D01*
X16285952Y-12099476D02*
X16285952Y-11899476D01*
X16371667Y-12099476D02*
X16371667Y-11994714D01*
X16362143Y-11975667D01*
X16343095Y-11966143D01*
X16314524Y-11966143D01*
X16295476Y-11975667D01*
X16285952Y-11985190D01*
X16495476Y-12099476D02*
X16476428Y-12089952D01*
X16466905Y-12080428D01*
X16457381Y-12061381D01*
X16457381Y-12004238D01*
X16466905Y-11985190D01*
X16476428Y-11975667D01*
X16495476Y-11966143D01*
X16524048Y-11966143D01*
X16543095Y-11975667D01*
X16552619Y-11985190D01*
X16562143Y-12004238D01*
X16562143Y-12061381D01*
X16552619Y-12080428D01*
X16543095Y-12089952D01*
X16524048Y-12099476D01*
X16495476Y-12099476D01*
X16676428Y-12099476D02*
X16657381Y-12089952D01*
X16647857Y-12070905D01*
X16647857Y-11899476D01*
X16828810Y-12089952D02*
X16809762Y-12099476D01*
X16771667Y-12099476D01*
X16752619Y-12089952D01*
X16743095Y-12070905D01*
X16743095Y-11994714D01*
X16752619Y-11975667D01*
X16771667Y-11966143D01*
X16809762Y-11966143D01*
X16828810Y-11975667D01*
X16838333Y-11994714D01*
X16838333Y-12013762D01*
X16743095Y-12032809D01*
X16914524Y-12089952D02*
X16933571Y-12099476D01*
X16971667Y-12099476D01*
X16990714Y-12089952D01*
X17000238Y-12070905D01*
X17000238Y-12061381D01*
X16990714Y-12042333D01*
X16971667Y-12032809D01*
X16943095Y-12032809D01*
X16924048Y-12023286D01*
X16914524Y-12004238D01*
X16914524Y-11994714D01*
X16924048Y-11975667D01*
X16943095Y-11966143D01*
X16971667Y-11966143D01*
X16990714Y-11975667D01*
X17066905Y-12175667D02*
X17076429Y-12166143D01*
X17095476Y-12137571D01*
X17105000Y-12118524D01*
X17114524Y-12089952D01*
X17124048Y-12042333D01*
X17124048Y-12004238D01*
X17114524Y-11956619D01*
X17105000Y-11928048D01*
X17095476Y-11909000D01*
X17076429Y-11880428D01*
X17066905Y-11870905D01*
D14*
X12224500Y-12202500D02*
X12224500Y-12343500D01*
X12154000Y-12273000D02*
X12295000Y-12273000D01*
D11*
X12657381Y-12363476D02*
X12543095Y-12363476D01*
X12600238Y-12363476D02*
X12600238Y-12163476D01*
X12581190Y-12192048D01*
X12562143Y-12211095D01*
X12543095Y-12220619D01*
X12743095Y-12344428D02*
X12752619Y-12353952D01*
X12743095Y-12363476D01*
X12733571Y-12353952D01*
X12743095Y-12344428D01*
X12743095Y-12363476D01*
X12924048Y-12230143D02*
X12924048Y-12363476D01*
X12876428Y-12153952D02*
X12828809Y-12296809D01*
X12952619Y-12296809D01*
X13133571Y-12363476D02*
X13019286Y-12363476D01*
X13076428Y-12363476D02*
X13076428Y-12163476D01*
X13057381Y-12192048D01*
X13038333Y-12211095D01*
X13019286Y-12220619D01*
X13257381Y-12163476D02*
X13276428Y-12163476D01*
X13295476Y-12173000D01*
X13305000Y-12182524D01*
X13314524Y-12201571D01*
X13324048Y-12239667D01*
X13324048Y-12287286D01*
X13314524Y-12325381D01*
X13305000Y-12344428D01*
X13295476Y-12353952D01*
X13276428Y-12363476D01*
X13257381Y-12363476D01*
X13238333Y-12353952D01*
X13228809Y-12344428D01*
X13219286Y-12325381D01*
X13209762Y-12287286D01*
X13209762Y-12239667D01*
X13219286Y-12201571D01*
X13228809Y-12182524D01*
X13238333Y-12173000D01*
X13257381Y-12163476D01*
X13409762Y-12363476D02*
X13409762Y-12230143D01*
X13409762Y-12249190D02*
X13419286Y-12239667D01*
X13438333Y-12230143D01*
X13466905Y-12230143D01*
X13485952Y-12239667D01*
X13495476Y-12258714D01*
X13495476Y-12363476D01*
X13495476Y-12258714D02*
X13505000Y-12239667D01*
X13524048Y-12230143D01*
X13552619Y-12230143D01*
X13571667Y-12239667D01*
X13581190Y-12258714D01*
X13581190Y-12363476D01*
X13676428Y-12363476D02*
X13676428Y-12230143D01*
X13676428Y-12249190D02*
X13685952Y-12239667D01*
X13705000Y-12230143D01*
X13733571Y-12230143D01*
X13752619Y-12239667D01*
X13762143Y-12258714D01*
X13762143Y-12363476D01*
X13762143Y-12258714D02*
X13771667Y-12239667D01*
X13790714Y-12230143D01*
X13819286Y-12230143D01*
X13838333Y-12239667D01*
X13847857Y-12258714D01*
X13847857Y-12363476D01*
X14238333Y-12153952D02*
X14066905Y-12411095D01*
X14495476Y-12163476D02*
X14514524Y-12163476D01*
X14533571Y-12173000D01*
X14543095Y-12182524D01*
X14552619Y-12201571D01*
X14562143Y-12239667D01*
X14562143Y-12287286D01*
X14552619Y-12325381D01*
X14543095Y-12344428D01*
X14533571Y-12353952D01*
X14514524Y-12363476D01*
X14495476Y-12363476D01*
X14476428Y-12353952D01*
X14466905Y-12344428D01*
X14457381Y-12325381D01*
X14447857Y-12287286D01*
X14447857Y-12239667D01*
X14457381Y-12201571D01*
X14466905Y-12182524D01*
X14476428Y-12173000D01*
X14495476Y-12163476D01*
X14647857Y-12344428D02*
X14657381Y-12353952D01*
X14647857Y-12363476D01*
X14638333Y-12353952D01*
X14647857Y-12344428D01*
X14647857Y-12363476D01*
X14781190Y-12163476D02*
X14800238Y-12163476D01*
X14819286Y-12173000D01*
X14828809Y-12182524D01*
X14838333Y-12201571D01*
X14847857Y-12239667D01*
X14847857Y-12287286D01*
X14838333Y-12325381D01*
X14828809Y-12344428D01*
X14819286Y-12353952D01*
X14800238Y-12363476D01*
X14781190Y-12363476D01*
X14762143Y-12353952D01*
X14752619Y-12344428D01*
X14743095Y-12325381D01*
X14733571Y-12287286D01*
X14733571Y-12239667D01*
X14743095Y-12201571D01*
X14752619Y-12182524D01*
X14762143Y-12173000D01*
X14781190Y-12163476D01*
X15028809Y-12163476D02*
X14933571Y-12163476D01*
X14924048Y-12258714D01*
X14933571Y-12249190D01*
X14952619Y-12239667D01*
X15000238Y-12239667D01*
X15019286Y-12249190D01*
X15028809Y-12258714D01*
X15038333Y-12277762D01*
X15038333Y-12325381D01*
X15028809Y-12344428D01*
X15019286Y-12353952D01*
X15000238Y-12363476D01*
X14952619Y-12363476D01*
X14933571Y-12353952D01*
X14924048Y-12344428D01*
X15219286Y-12163476D02*
X15124048Y-12163476D01*
X15114524Y-12258714D01*
X15124048Y-12249190D01*
X15143095Y-12239667D01*
X15190714Y-12239667D01*
X15209762Y-12249190D01*
X15219286Y-12258714D01*
X15228809Y-12277762D01*
X15228809Y-12325381D01*
X15219286Y-12344428D01*
X15209762Y-12353952D01*
X15190714Y-12363476D01*
X15143095Y-12363476D01*
X15124048Y-12353952D01*
X15114524Y-12344428D01*
X15409762Y-12163476D02*
X15314524Y-12163476D01*
X15305000Y-12258714D01*
X15314524Y-12249190D01*
X15333571Y-12239667D01*
X15381190Y-12239667D01*
X15400238Y-12249190D01*
X15409762Y-12258714D01*
X15419286Y-12277762D01*
X15419286Y-12325381D01*
X15409762Y-12344428D01*
X15400238Y-12353952D01*
X15381190Y-12363476D01*
X15333571Y-12363476D01*
X15314524Y-12353952D01*
X15305000Y-12344428D01*
X15495476Y-12163476D02*
X15495476Y-12201571D01*
X15571667Y-12163476D02*
X15571667Y-12201571D01*
X15866905Y-12439667D02*
X15857381Y-12430143D01*
X15838333Y-12401571D01*
X15828809Y-12382524D01*
X15819286Y-12353952D01*
X15809762Y-12306333D01*
X15809762Y-12268238D01*
X15819286Y-12220619D01*
X15828809Y-12192048D01*
X15838333Y-12173000D01*
X15857381Y-12144428D01*
X15866905Y-12134905D01*
X15933571Y-12182524D02*
X15943095Y-12173000D01*
X15962143Y-12163476D01*
X16009762Y-12163476D01*
X16028809Y-12173000D01*
X16038333Y-12182524D01*
X16047857Y-12201571D01*
X16047857Y-12220619D01*
X16038333Y-12249190D01*
X15924048Y-12363476D01*
X16047857Y-12363476D01*
X16285952Y-12363476D02*
X16285952Y-12163476D01*
X16371667Y-12363476D02*
X16371667Y-12258714D01*
X16362143Y-12239667D01*
X16343095Y-12230143D01*
X16314524Y-12230143D01*
X16295476Y-12239667D01*
X16285952Y-12249190D01*
X16495476Y-12363476D02*
X16476428Y-12353952D01*
X16466905Y-12344428D01*
X16457381Y-12325381D01*
X16457381Y-12268238D01*
X16466905Y-12249190D01*
X16476428Y-12239667D01*
X16495476Y-12230143D01*
X16524048Y-12230143D01*
X16543095Y-12239667D01*
X16552619Y-12249190D01*
X16562143Y-12268238D01*
X16562143Y-12325381D01*
X16552619Y-12344428D01*
X16543095Y-12353952D01*
X16524048Y-12363476D01*
X16495476Y-12363476D01*
X16676428Y-12363476D02*
X16657381Y-12353952D01*
X16647857Y-12334905D01*
X16647857Y-12163476D01*
X16828810Y-12353952D02*
X16809762Y-12363476D01*
X16771667Y-12363476D01*
X16752619Y-12353952D01*
X16743095Y-12334905D01*
X16743095Y-12258714D01*
X16752619Y-12239667D01*
X16771667Y-12230143D01*
X16809762Y-12230143D01*
X16828810Y-12239667D01*
X16838333Y-12258714D01*
X16838333Y-12277762D01*
X16743095Y-12296809D01*
X16914524Y-12353952D02*
X16933571Y-12363476D01*
X16971667Y-12363476D01*
X16990714Y-12353952D01*
X17000238Y-12334905D01*
X17000238Y-12325381D01*
X16990714Y-12306333D01*
X16971667Y-12296809D01*
X16943095Y-12296809D01*
X16924048Y-12287286D01*
X16914524Y-12268238D01*
X16914524Y-12258714D01*
X16924048Y-12239667D01*
X16943095Y-12230143D01*
X16971667Y-12230143D01*
X16990714Y-12239667D01*
X17066905Y-12439667D02*
X17076429Y-12430143D01*
X17095476Y-12401571D01*
X17105000Y-12382524D01*
X17114524Y-12353952D01*
X17124048Y-12306333D01*
X17124048Y-12268238D01*
X17114524Y-12220619D01*
X17105000Y-12192048D01*
X17095476Y-12173000D01*
X17076429Y-12144428D01*
X17066905Y-12134905D01*
M02*
