G04 #@! TF.GenerationSoftware,KiCad,Pcbnew,(6.0.1)*
G04 #@! TF.CreationDate,2022-12-28T11:05:24-06:00*
G04 #@! TF.ProjectId,AIL,41494c2e-6b69-4636-9164-5f7063625858,rev?*
G04 #@! TF.SameCoordinates,Original*
G04 #@! TF.FileFunction,Legend,Bot*
G04 #@! TF.FilePolarity,Positive*
%FSLAX46Y46*%
G04 Gerber Fmt 4.6, Leading zero omitted, Abs format (unit mm)*
G04 Created by KiCad (PCBNEW (6.0.1)) date 2022-12-28 11:05:24*
%MOMM*%
%LPD*%
G01*
G04 APERTURE LIST*
G04 Aperture macros list*
%AMRoundRect*
0 Rectangle with rounded corners*
0 $1 Rounding radius*
0 $2 $3 $4 $5 $6 $7 $8 $9 X,Y pos of 4 corners*
0 Add a 4 corners polygon primitive as box body*
4,1,4,$2,$3,$4,$5,$6,$7,$8,$9,$2,$3,0*
0 Add four circle primitives for the rounded corners*
1,1,$1+$1,$2,$3*
1,1,$1+$1,$4,$5*
1,1,$1+$1,$6,$7*
1,1,$1+$1,$8,$9*
0 Add four rect primitives between the rounded corners*
20,1,$1+$1,$2,$3,$4,$5,0*
20,1,$1+$1,$4,$5,$6,$7,0*
20,1,$1+$1,$6,$7,$8,$9,0*
20,1,$1+$1,$8,$9,$2,$3,0*%
G04 Aperture macros list end*
%ADD10C,0.150000*%
%ADD11C,0.200000*%
%ADD12C,0.120000*%
%ADD13C,3.000000*%
%ADD14RoundRect,0.250001X0.499999X-0.499999X0.499999X0.499999X-0.499999X0.499999X-0.499999X-0.499999X0*%
%ADD15C,1.500000*%
%ADD16R,2.115000X2.115000*%
%ADD17C,2.115000*%
%ADD18R,0.800000X1.400000*%
%ADD19RoundRect,0.237500X0.237500X-0.250000X0.237500X0.250000X-0.237500X0.250000X-0.237500X-0.250000X0*%
G04 APERTURE END LIST*
D10*
X133452380Y-96013333D02*
X132976190Y-95680000D01*
X133452380Y-95441904D02*
X132452380Y-95441904D01*
X132452380Y-95822857D01*
X132500000Y-95918095D01*
X132547619Y-95965714D01*
X132642857Y-96013333D01*
X132785714Y-96013333D01*
X132880952Y-95965714D01*
X132928571Y-95918095D01*
X132976190Y-95822857D01*
X132976190Y-95441904D01*
X132880952Y-96584761D02*
X132833333Y-96489523D01*
X132785714Y-96441904D01*
X132690476Y-96394285D01*
X132642857Y-96394285D01*
X132547619Y-96441904D01*
X132500000Y-96489523D01*
X132452380Y-96584761D01*
X132452380Y-96775238D01*
X132500000Y-96870476D01*
X132547619Y-96918095D01*
X132642857Y-96965714D01*
X132690476Y-96965714D01*
X132785714Y-96918095D01*
X132833333Y-96870476D01*
X132880952Y-96775238D01*
X132880952Y-96584761D01*
X132928571Y-96489523D01*
X132976190Y-96441904D01*
X133071428Y-96394285D01*
X133261904Y-96394285D01*
X133357142Y-96441904D01*
X133404761Y-96489523D01*
X133452380Y-96584761D01*
X133452380Y-96775238D01*
X133404761Y-96870476D01*
X133357142Y-96918095D01*
X133261904Y-96965714D01*
X133071428Y-96965714D01*
X132976190Y-96918095D01*
X132928571Y-96870476D01*
X132880952Y-96775238D01*
D11*
X162074000Y-96300000D02*
X159224000Y-96300000D01*
X159224000Y-94200000D02*
X162074000Y-94200000D01*
X162074000Y-94200000D02*
X162074000Y-96300000D01*
X157502000Y-91152000D02*
X157502000Y-93252000D01*
X157502000Y-93252000D02*
X154652000Y-93252000D01*
X154652000Y-91152000D02*
X157502000Y-91152000D01*
X159224000Y-82008000D02*
X162074000Y-82008000D01*
X162074000Y-84108000D02*
X159224000Y-84108000D01*
X162074000Y-82008000D02*
X162074000Y-84108000D01*
X149826000Y-94200000D02*
X152676000Y-94200000D01*
X152676000Y-94200000D02*
X152676000Y-96300000D01*
X152676000Y-96300000D02*
X149826000Y-96300000D01*
X148104000Y-87156000D02*
X145254000Y-87156000D01*
X148104000Y-85056000D02*
X148104000Y-87156000D01*
X145254000Y-85056000D02*
X148104000Y-85056000D01*
X143532000Y-82008000D02*
X143532000Y-84108000D01*
X140682000Y-82008000D02*
X143532000Y-82008000D01*
X143532000Y-84108000D02*
X140682000Y-84108000D01*
X152676000Y-90204000D02*
X149826000Y-90204000D01*
X149826000Y-88104000D02*
X152676000Y-88104000D01*
X152676000Y-88104000D02*
X152676000Y-90204000D01*
X149826000Y-91152000D02*
X152676000Y-91152000D01*
X152676000Y-93252000D02*
X149826000Y-93252000D01*
X152676000Y-91152000D02*
X152676000Y-93252000D01*
X140682000Y-91152000D02*
X143532000Y-91152000D01*
X143532000Y-91152000D02*
X143532000Y-93252000D01*
X143532000Y-93252000D02*
X140682000Y-93252000D01*
X148104000Y-84108000D02*
X145254000Y-84108000D01*
X145254000Y-82008000D02*
X148104000Y-82008000D01*
X148104000Y-82008000D02*
X148104000Y-84108000D01*
X148104000Y-94200000D02*
X148104000Y-96300000D01*
X145254000Y-94200000D02*
X148104000Y-94200000D01*
X148104000Y-96300000D02*
X145254000Y-96300000D01*
X143532000Y-96300000D02*
X140682000Y-96300000D01*
X140682000Y-94200000D02*
X143532000Y-94200000D01*
X143532000Y-94200000D02*
X143532000Y-96300000D01*
X149826000Y-82008000D02*
X152676000Y-82008000D01*
X152676000Y-84108000D02*
X149826000Y-84108000D01*
X152676000Y-82008000D02*
X152676000Y-84108000D01*
X140682000Y-85056000D02*
X143532000Y-85056000D01*
X143532000Y-87156000D02*
X140682000Y-87156000D01*
X143532000Y-85056000D02*
X143532000Y-87156000D01*
D12*
X132092500Y-96434724D02*
X132092500Y-95925276D01*
X131047500Y-96434724D02*
X131047500Y-95925276D01*
D11*
X143532000Y-88104000D02*
X143532000Y-90204000D01*
X140682000Y-88104000D02*
X143532000Y-88104000D01*
X143532000Y-90204000D02*
X140682000Y-90204000D01*
X162074000Y-88104000D02*
X162074000Y-90204000D01*
X159224000Y-88104000D02*
X162074000Y-88104000D01*
X162074000Y-90204000D02*
X159224000Y-90204000D01*
X159224000Y-85056000D02*
X162074000Y-85056000D01*
X162074000Y-87156000D02*
X159224000Y-87156000D01*
X162074000Y-85056000D02*
X162074000Y-87156000D01*
X149826000Y-85056000D02*
X152676000Y-85056000D01*
X152676000Y-87156000D02*
X149826000Y-87156000D01*
X152676000Y-85056000D02*
X152676000Y-87156000D01*
X154652000Y-88104000D02*
X157502000Y-88104000D01*
X157502000Y-90204000D02*
X154652000Y-90204000D01*
X157502000Y-88104000D02*
X157502000Y-90204000D01*
X148104000Y-91152000D02*
X148104000Y-93252000D01*
X148104000Y-93252000D02*
X145254000Y-93252000D01*
X145254000Y-91152000D02*
X148104000Y-91152000D01*
X148104000Y-90204000D02*
X145254000Y-90204000D01*
X148104000Y-88104000D02*
X148104000Y-90204000D01*
X145254000Y-88104000D02*
X148104000Y-88104000D01*
X154652000Y-85056000D02*
X157502000Y-85056000D01*
X157502000Y-87156000D02*
X154652000Y-87156000D01*
X157502000Y-85056000D02*
X157502000Y-87156000D01*
X159224000Y-91152000D02*
X162074000Y-91152000D01*
X162074000Y-93252000D02*
X159224000Y-93252000D01*
X162074000Y-91152000D02*
X162074000Y-93252000D01*
X157502000Y-96300000D02*
X154652000Y-96300000D01*
X157502000Y-94200000D02*
X157502000Y-96300000D01*
X154652000Y-94200000D02*
X157502000Y-94200000D01*
X157502000Y-84108000D02*
X154652000Y-84108000D01*
X154652000Y-82008000D02*
X157502000Y-82008000D01*
X157502000Y-82008000D02*
X157502000Y-84108000D01*
%LPC*%
D13*
X125448445Y-81439445D03*
D14*
X129768445Y-81439445D03*
D15*
X132768445Y-81439445D03*
D13*
X128000000Y-106000000D03*
X179000000Y-106000000D03*
X179000000Y-78000000D03*
D16*
X145118445Y-103604445D03*
D17*
X140038445Y-103604445D03*
D18*
X161324000Y-95250000D03*
X159224000Y-95250000D03*
X156752000Y-92202000D03*
X154652000Y-92202000D03*
X161324000Y-83058000D03*
X159224000Y-83058000D03*
X151926000Y-95250000D03*
X149826000Y-95250000D03*
X147354000Y-86106000D03*
X145254000Y-86106000D03*
X142782000Y-83058000D03*
X140682000Y-83058000D03*
X151926000Y-89154000D03*
X149826000Y-89154000D03*
X151926000Y-92202000D03*
X149826000Y-92202000D03*
X142782000Y-92202000D03*
X140682000Y-92202000D03*
X147354000Y-83058000D03*
X145254000Y-83058000D03*
X147354000Y-95250000D03*
X145254000Y-95250000D03*
X142782000Y-95250000D03*
X140682000Y-95250000D03*
X151926000Y-83058000D03*
X149826000Y-83058000D03*
X142782000Y-86106000D03*
X140682000Y-86106000D03*
D19*
X131570000Y-97092500D03*
X131570000Y-95267500D03*
D18*
X142782000Y-89154000D03*
X140682000Y-89154000D03*
X161324000Y-89154000D03*
X159224000Y-89154000D03*
X161324000Y-86106000D03*
X159224000Y-86106000D03*
X151926000Y-86106000D03*
X149826000Y-86106000D03*
X156752000Y-89154000D03*
X154652000Y-89154000D03*
X147354000Y-92202000D03*
X145254000Y-92202000D03*
X147354000Y-89154000D03*
X145254000Y-89154000D03*
X156752000Y-86106000D03*
X154652000Y-86106000D03*
X161324000Y-92202000D03*
X159224000Y-92202000D03*
X156752000Y-95250000D03*
X154652000Y-95250000D03*
X156752000Y-83058000D03*
X154652000Y-83058000D03*
M02*
