%FSLAX45Y45*%
G04 Gerber Fmt 4.5, Leading zero omitted, Abs format (unit mm)*
G04 Created by KiCad (PCBNEW (6.0.1)) date 2022-12-28 11:06:09*
%MOMM*%
%LPD*%
G01*
G04 APERTURE LIST*
%TA.AperFunction,Profile*%
%ADD10C,0.100000*%
%TD*%
%ADD11C,0.200000*%
%ADD12C,0.300000*%
G04 APERTURE END LIST*
D10*
X18000000Y-11100000D02*
G75*
G03*
X18400000Y-10700000I0J400000D01*
G01*
X12700000Y-7300000D02*
X18000000Y-7300000D01*
X12300000Y-10700000D02*
G75*
G03*
X12700000Y-11100000I400000J0D01*
G01*
X12700000Y-7300000D02*
G75*
G03*
X12300000Y-7700000I0J-400000D01*
G01*
X12300000Y-7700000D02*
X12300000Y-10700000D01*
X18400000Y-7700000D02*
G75*
G03*
X18000000Y-7300000I-400000J0D01*
G01*
X18400000Y-7700000D02*
X18400000Y-10700000D01*
X12700000Y-11100000D02*
X18000000Y-11100000D01*
D11*
D12*
X12394844Y-7993944D02*
X12694844Y-8293944D01*
X12694844Y-7993944D02*
X12394844Y-8293944D01*
X12650000Y-10450000D02*
X12950000Y-10750000D01*
X12950000Y-10450000D02*
X12650000Y-10750000D01*
X17750000Y-7650000D02*
X18050000Y-7950000D01*
X18050000Y-7650000D02*
X17750000Y-7950000D01*
X17750000Y-10450000D02*
X18050000Y-10750000D01*
X18050000Y-10450000D02*
X17750000Y-10750000D01*
D11*
X12552619Y-11415476D02*
X12552619Y-11215476D01*
X12600238Y-11215476D01*
X12628809Y-11225000D01*
X12647857Y-11244048D01*
X12657381Y-11263095D01*
X12666905Y-11301190D01*
X12666905Y-11329762D01*
X12657381Y-11367857D01*
X12647857Y-11386905D01*
X12628809Y-11405952D01*
X12600238Y-11415476D01*
X12552619Y-11415476D01*
X12752619Y-11415476D02*
X12752619Y-11282143D01*
X12752619Y-11320238D02*
X12762143Y-11301190D01*
X12771667Y-11291667D01*
X12790714Y-11282143D01*
X12809762Y-11282143D01*
X12876428Y-11415476D02*
X12876428Y-11282143D01*
X12876428Y-11215476D02*
X12866905Y-11225000D01*
X12876428Y-11234524D01*
X12885952Y-11225000D01*
X12876428Y-11215476D01*
X12876428Y-11234524D01*
X13000238Y-11415476D02*
X12981190Y-11405952D01*
X12971667Y-11386905D01*
X12971667Y-11215476D01*
X13105000Y-11415476D02*
X13085952Y-11405952D01*
X13076428Y-11386905D01*
X13076428Y-11215476D01*
X13333571Y-11415476D02*
X13333571Y-11215476D01*
X13400238Y-11358333D01*
X13466905Y-11215476D01*
X13466905Y-11415476D01*
X13647857Y-11415476D02*
X13647857Y-11310714D01*
X13638333Y-11291667D01*
X13619286Y-11282143D01*
X13581190Y-11282143D01*
X13562143Y-11291667D01*
X13647857Y-11405952D02*
X13628809Y-11415476D01*
X13581190Y-11415476D01*
X13562143Y-11405952D01*
X13552619Y-11386905D01*
X13552619Y-11367857D01*
X13562143Y-11348809D01*
X13581190Y-11339286D01*
X13628809Y-11339286D01*
X13647857Y-11329762D01*
X13743095Y-11282143D02*
X13743095Y-11482143D01*
X13743095Y-11291667D02*
X13762143Y-11282143D01*
X13800238Y-11282143D01*
X13819286Y-11291667D01*
X13828809Y-11301190D01*
X13838333Y-11320238D01*
X13838333Y-11377381D01*
X13828809Y-11396428D01*
X13819286Y-11405952D01*
X13800238Y-11415476D01*
X13762143Y-11415476D01*
X13743095Y-11405952D01*
X13924048Y-11396428D02*
X13933571Y-11405952D01*
X13924048Y-11415476D01*
X13914524Y-11405952D01*
X13924048Y-11396428D01*
X13924048Y-11415476D01*
X13924048Y-11291667D02*
X13933571Y-11301190D01*
X13924048Y-11310714D01*
X13914524Y-11301190D01*
X13924048Y-11291667D01*
X13924048Y-11310714D01*
X12095000Y-11645000D02*
X12295000Y-11845000D01*
X12295000Y-11645000D02*
X12095000Y-11845000D01*
X12533571Y-11635476D02*
X12657381Y-11635476D01*
X12590714Y-11711667D01*
X12619286Y-11711667D01*
X12638333Y-11721190D01*
X12647857Y-11730714D01*
X12657381Y-11749762D01*
X12657381Y-11797381D01*
X12647857Y-11816428D01*
X12638333Y-11825952D01*
X12619286Y-11835476D01*
X12562143Y-11835476D01*
X12543095Y-11825952D01*
X12533571Y-11816428D01*
X12743095Y-11816428D02*
X12752619Y-11825952D01*
X12743095Y-11835476D01*
X12733571Y-11825952D01*
X12743095Y-11816428D01*
X12743095Y-11835476D01*
X12876428Y-11635476D02*
X12895476Y-11635476D01*
X12914524Y-11645000D01*
X12924048Y-11654524D01*
X12933571Y-11673571D01*
X12943095Y-11711667D01*
X12943095Y-11759286D01*
X12933571Y-11797381D01*
X12924048Y-11816428D01*
X12914524Y-11825952D01*
X12895476Y-11835476D01*
X12876428Y-11835476D01*
X12857381Y-11825952D01*
X12847857Y-11816428D01*
X12838333Y-11797381D01*
X12828809Y-11759286D01*
X12828809Y-11711667D01*
X12838333Y-11673571D01*
X12847857Y-11654524D01*
X12857381Y-11645000D01*
X12876428Y-11635476D01*
X13066905Y-11635476D02*
X13085952Y-11635476D01*
X13105000Y-11645000D01*
X13114524Y-11654524D01*
X13124048Y-11673571D01*
X13133571Y-11711667D01*
X13133571Y-11759286D01*
X13124048Y-11797381D01*
X13114524Y-11816428D01*
X13105000Y-11825952D01*
X13085952Y-11835476D01*
X13066905Y-11835476D01*
X13047857Y-11825952D01*
X13038333Y-11816428D01*
X13028809Y-11797381D01*
X13019286Y-11759286D01*
X13019286Y-11711667D01*
X13028809Y-11673571D01*
X13038333Y-11654524D01*
X13047857Y-11645000D01*
X13066905Y-11635476D01*
X13257381Y-11635476D02*
X13276428Y-11635476D01*
X13295476Y-11645000D01*
X13305000Y-11654524D01*
X13314524Y-11673571D01*
X13324048Y-11711667D01*
X13324048Y-11759286D01*
X13314524Y-11797381D01*
X13305000Y-11816428D01*
X13295476Y-11825952D01*
X13276428Y-11835476D01*
X13257381Y-11835476D01*
X13238333Y-11825952D01*
X13228809Y-11816428D01*
X13219286Y-11797381D01*
X13209762Y-11759286D01*
X13209762Y-11711667D01*
X13219286Y-11673571D01*
X13228809Y-11654524D01*
X13238333Y-11645000D01*
X13257381Y-11635476D01*
X13409762Y-11835476D02*
X13409762Y-11702143D01*
X13409762Y-11721190D02*
X13419286Y-11711667D01*
X13438333Y-11702143D01*
X13466905Y-11702143D01*
X13485952Y-11711667D01*
X13495476Y-11730714D01*
X13495476Y-11835476D01*
X13495476Y-11730714D02*
X13505000Y-11711667D01*
X13524048Y-11702143D01*
X13552619Y-11702143D01*
X13571667Y-11711667D01*
X13581190Y-11730714D01*
X13581190Y-11835476D01*
X13676428Y-11835476D02*
X13676428Y-11702143D01*
X13676428Y-11721190D02*
X13685952Y-11711667D01*
X13705000Y-11702143D01*
X13733571Y-11702143D01*
X13752619Y-11711667D01*
X13762143Y-11730714D01*
X13762143Y-11835476D01*
X13762143Y-11730714D02*
X13771667Y-11711667D01*
X13790714Y-11702143D01*
X13819286Y-11702143D01*
X13838333Y-11711667D01*
X13847857Y-11730714D01*
X13847857Y-11835476D01*
X14238333Y-11625952D02*
X14066905Y-11883095D01*
X14495476Y-11635476D02*
X14514524Y-11635476D01*
X14533571Y-11645000D01*
X14543095Y-11654524D01*
X14552619Y-11673571D01*
X14562143Y-11711667D01*
X14562143Y-11759286D01*
X14552619Y-11797381D01*
X14543095Y-11816428D01*
X14533571Y-11825952D01*
X14514524Y-11835476D01*
X14495476Y-11835476D01*
X14476428Y-11825952D01*
X14466905Y-11816428D01*
X14457381Y-11797381D01*
X14447857Y-11759286D01*
X14447857Y-11711667D01*
X14457381Y-11673571D01*
X14466905Y-11654524D01*
X14476428Y-11645000D01*
X14495476Y-11635476D01*
X14647857Y-11816428D02*
X14657381Y-11825952D01*
X14647857Y-11835476D01*
X14638333Y-11825952D01*
X14647857Y-11816428D01*
X14647857Y-11835476D01*
X14847857Y-11835476D02*
X14733571Y-11835476D01*
X14790714Y-11835476D02*
X14790714Y-11635476D01*
X14771667Y-11664048D01*
X14752619Y-11683095D01*
X14733571Y-11692619D01*
X15038333Y-11835476D02*
X14924048Y-11835476D01*
X14981190Y-11835476D02*
X14981190Y-11635476D01*
X14962143Y-11664048D01*
X14943095Y-11683095D01*
X14924048Y-11692619D01*
X15152619Y-11721190D02*
X15133571Y-11711667D01*
X15124048Y-11702143D01*
X15114524Y-11683095D01*
X15114524Y-11673571D01*
X15124048Y-11654524D01*
X15133571Y-11645000D01*
X15152619Y-11635476D01*
X15190714Y-11635476D01*
X15209762Y-11645000D01*
X15219286Y-11654524D01*
X15228809Y-11673571D01*
X15228809Y-11683095D01*
X15219286Y-11702143D01*
X15209762Y-11711667D01*
X15190714Y-11721190D01*
X15152619Y-11721190D01*
X15133571Y-11730714D01*
X15124048Y-11740238D01*
X15114524Y-11759286D01*
X15114524Y-11797381D01*
X15124048Y-11816428D01*
X15133571Y-11825952D01*
X15152619Y-11835476D01*
X15190714Y-11835476D01*
X15209762Y-11825952D01*
X15219286Y-11816428D01*
X15228809Y-11797381D01*
X15228809Y-11759286D01*
X15219286Y-11740238D01*
X15209762Y-11730714D01*
X15190714Y-11721190D01*
X15419286Y-11835476D02*
X15305000Y-11835476D01*
X15362143Y-11835476D02*
X15362143Y-11635476D01*
X15343095Y-11664048D01*
X15324048Y-11683095D01*
X15305000Y-11692619D01*
X15495476Y-11635476D02*
X15495476Y-11673571D01*
X15571667Y-11635476D02*
X15571667Y-11673571D01*
X15866905Y-11911667D02*
X15857381Y-11902143D01*
X15838333Y-11873571D01*
X15828809Y-11854524D01*
X15819286Y-11825952D01*
X15809762Y-11778333D01*
X15809762Y-11740238D01*
X15819286Y-11692619D01*
X15828809Y-11664048D01*
X15838333Y-11645000D01*
X15857381Y-11616428D01*
X15866905Y-11606905D01*
X16028809Y-11702143D02*
X16028809Y-11835476D01*
X15981190Y-11625952D02*
X15933571Y-11768809D01*
X16057381Y-11768809D01*
X16285952Y-11835476D02*
X16285952Y-11635476D01*
X16371667Y-11835476D02*
X16371667Y-11730714D01*
X16362143Y-11711667D01*
X16343095Y-11702143D01*
X16314524Y-11702143D01*
X16295476Y-11711667D01*
X16285952Y-11721190D01*
X16495476Y-11835476D02*
X16476428Y-11825952D01*
X16466905Y-11816428D01*
X16457381Y-11797381D01*
X16457381Y-11740238D01*
X16466905Y-11721190D01*
X16476428Y-11711667D01*
X16495476Y-11702143D01*
X16524048Y-11702143D01*
X16543095Y-11711667D01*
X16552619Y-11721190D01*
X16562143Y-11740238D01*
X16562143Y-11797381D01*
X16552619Y-11816428D01*
X16543095Y-11825952D01*
X16524048Y-11835476D01*
X16495476Y-11835476D01*
X16676428Y-11835476D02*
X16657381Y-11825952D01*
X16647857Y-11806905D01*
X16647857Y-11635476D01*
X16828810Y-11825952D02*
X16809762Y-11835476D01*
X16771667Y-11835476D01*
X16752619Y-11825952D01*
X16743095Y-11806905D01*
X16743095Y-11730714D01*
X16752619Y-11711667D01*
X16771667Y-11702143D01*
X16809762Y-11702143D01*
X16828810Y-11711667D01*
X16838333Y-11730714D01*
X16838333Y-11749762D01*
X16743095Y-11768809D01*
X16914524Y-11825952D02*
X16933571Y-11835476D01*
X16971667Y-11835476D01*
X16990714Y-11825952D01*
X17000238Y-11806905D01*
X17000238Y-11797381D01*
X16990714Y-11778333D01*
X16971667Y-11768809D01*
X16943095Y-11768809D01*
X16924048Y-11759286D01*
X16914524Y-11740238D01*
X16914524Y-11730714D01*
X16924048Y-11711667D01*
X16943095Y-11702143D01*
X16971667Y-11702143D01*
X16990714Y-11711667D01*
X17066905Y-11911667D02*
X17076429Y-11902143D01*
X17095476Y-11873571D01*
X17105000Y-11854524D01*
X17114524Y-11825952D01*
X17124048Y-11778333D01*
X17124048Y-11740238D01*
X17114524Y-11692619D01*
X17105000Y-11664048D01*
X17095476Y-11645000D01*
X17076429Y-11616428D01*
X17066905Y-11606905D01*
X17428810Y-11911667D02*
X17419286Y-11902143D01*
X17400238Y-11873571D01*
X17390714Y-11854524D01*
X17381190Y-11825952D01*
X17371667Y-11778333D01*
X17371667Y-11740238D01*
X17381190Y-11692619D01*
X17390714Y-11664048D01*
X17400238Y-11645000D01*
X17419286Y-11616428D01*
X17428810Y-11606905D01*
X17505000Y-11702143D02*
X17505000Y-11835476D01*
X17505000Y-11721190D02*
X17514524Y-11711667D01*
X17533571Y-11702143D01*
X17562143Y-11702143D01*
X17581190Y-11711667D01*
X17590714Y-11730714D01*
X17590714Y-11835476D01*
X17714524Y-11835476D02*
X17695476Y-11825952D01*
X17685952Y-11816428D01*
X17676429Y-11797381D01*
X17676429Y-11740238D01*
X17685952Y-11721190D01*
X17695476Y-11711667D01*
X17714524Y-11702143D01*
X17743095Y-11702143D01*
X17762143Y-11711667D01*
X17771667Y-11721190D01*
X17781190Y-11740238D01*
X17781190Y-11797381D01*
X17771667Y-11816428D01*
X17762143Y-11825952D01*
X17743095Y-11835476D01*
X17714524Y-11835476D01*
X17838333Y-11702143D02*
X17914524Y-11702143D01*
X17866905Y-11635476D02*
X17866905Y-11806905D01*
X17876429Y-11825952D01*
X17895476Y-11835476D01*
X17914524Y-11835476D01*
X18133571Y-11702143D02*
X18133571Y-11902143D01*
X18133571Y-11711667D02*
X18152619Y-11702143D01*
X18190714Y-11702143D01*
X18209762Y-11711667D01*
X18219286Y-11721190D01*
X18228810Y-11740238D01*
X18228810Y-11797381D01*
X18219286Y-11816428D01*
X18209762Y-11825952D01*
X18190714Y-11835476D01*
X18152619Y-11835476D01*
X18133571Y-11825952D01*
X18343095Y-11835476D02*
X18324048Y-11825952D01*
X18314524Y-11806905D01*
X18314524Y-11635476D01*
X18505000Y-11835476D02*
X18505000Y-11730714D01*
X18495476Y-11711667D01*
X18476429Y-11702143D01*
X18438333Y-11702143D01*
X18419286Y-11711667D01*
X18505000Y-11825952D02*
X18485952Y-11835476D01*
X18438333Y-11835476D01*
X18419286Y-11825952D01*
X18409762Y-11806905D01*
X18409762Y-11787857D01*
X18419286Y-11768809D01*
X18438333Y-11759286D01*
X18485952Y-11759286D01*
X18505000Y-11749762D01*
X18571667Y-11702143D02*
X18647857Y-11702143D01*
X18600238Y-11635476D02*
X18600238Y-11806905D01*
X18609762Y-11825952D01*
X18628810Y-11835476D01*
X18647857Y-11835476D01*
X18790714Y-11825952D02*
X18771667Y-11835476D01*
X18733571Y-11835476D01*
X18714524Y-11825952D01*
X18705000Y-11806905D01*
X18705000Y-11730714D01*
X18714524Y-11711667D01*
X18733571Y-11702143D01*
X18771667Y-11702143D01*
X18790714Y-11711667D01*
X18800238Y-11730714D01*
X18800238Y-11749762D01*
X18705000Y-11768809D01*
X18971667Y-11835476D02*
X18971667Y-11635476D01*
X18971667Y-11825952D02*
X18952619Y-11835476D01*
X18914524Y-11835476D01*
X18895476Y-11825952D01*
X18885952Y-11816428D01*
X18876429Y-11797381D01*
X18876429Y-11740238D01*
X18885952Y-11721190D01*
X18895476Y-11711667D01*
X18914524Y-11702143D01*
X18952619Y-11702143D01*
X18971667Y-11711667D01*
X19047857Y-11911667D02*
X19057381Y-11902143D01*
X19076429Y-11873571D01*
X19085952Y-11854524D01*
X19095476Y-11825952D01*
X19105000Y-11778333D01*
X19105000Y-11740238D01*
X19095476Y-11692619D01*
X19085952Y-11664048D01*
X19076429Y-11645000D01*
X19057381Y-11616428D01*
X19047857Y-11606905D01*
M02*
