G04 #@! TF.GenerationSoftware,KiCad,Pcbnew,(6.0.1)*
G04 #@! TF.CreationDate,2022-12-28T16:36:33-06:00*
G04 #@! TF.ProjectId,AIL,41494c2e-6b69-4636-9164-5f7063625858,rev?*
G04 #@! TF.SameCoordinates,Original*
G04 #@! TF.FileFunction,Copper,L2,Bot*
G04 #@! TF.FilePolarity,Positive*
%FSLAX46Y46*%
G04 Gerber Fmt 4.6, Leading zero omitted, Abs format (unit mm)*
G04 Created by KiCad (PCBNEW (6.0.1)) date 2022-12-28 16:36:33*
%MOMM*%
%LPD*%
G01*
G04 APERTURE LIST*
G04 Aperture macros list*
%AMRoundRect*
0 Rectangle with rounded corners*
0 $1 Rounding radius*
0 $2 $3 $4 $5 $6 $7 $8 $9 X,Y pos of 4 corners*
0 Add a 4 corners polygon primitive as box body*
4,1,4,$2,$3,$4,$5,$6,$7,$8,$9,$2,$3,0*
0 Add four circle primitives for the rounded corners*
1,1,$1+$1,$2,$3*
1,1,$1+$1,$4,$5*
1,1,$1+$1,$6,$7*
1,1,$1+$1,$8,$9*
0 Add four rect primitives between the rounded corners*
20,1,$1+$1,$2,$3,$4,$5,0*
20,1,$1+$1,$4,$5,$6,$7,0*
20,1,$1+$1,$6,$7,$8,$9,0*
20,1,$1+$1,$8,$9,$2,$3,0*%
G04 Aperture macros list end*
G04 #@! TA.AperFunction,ComponentPad*
%ADD10RoundRect,0.250001X0.499999X-0.499999X0.499999X0.499999X-0.499999X0.499999X-0.499999X-0.499999X0*%
G04 #@! TD*
G04 #@! TA.AperFunction,ComponentPad*
%ADD11C,1.500000*%
G04 #@! TD*
G04 #@! TA.AperFunction,ComponentPad*
%ADD12R,2.115000X2.115000*%
G04 #@! TD*
G04 #@! TA.AperFunction,ComponentPad*
%ADD13C,2.115000*%
G04 #@! TD*
G04 #@! TA.AperFunction,SMDPad,CuDef*
%ADD14R,0.800000X1.400000*%
G04 #@! TD*
G04 #@! TA.AperFunction,SMDPad,CuDef*
%ADD15RoundRect,0.237500X0.237500X-0.250000X0.237500X0.250000X-0.237500X0.250000X-0.237500X-0.250000X0*%
G04 #@! TD*
G04 #@! TA.AperFunction,ViaPad*
%ADD16C,0.800000*%
G04 #@! TD*
G04 #@! TA.AperFunction,Conductor*
%ADD17C,0.250000*%
G04 #@! TD*
G04 APERTURE END LIST*
D10*
X129768445Y-81439445D03*
D11*
X132768445Y-81439445D03*
D12*
X145118445Y-103604445D03*
D13*
X140038445Y-103604445D03*
D14*
X161324000Y-95250000D03*
X159224000Y-95250000D03*
X156752000Y-92202000D03*
X154652000Y-92202000D03*
X161324000Y-83058000D03*
X159224000Y-83058000D03*
X151926000Y-95250000D03*
X149826000Y-95250000D03*
X147354000Y-86106000D03*
X145254000Y-86106000D03*
X142782000Y-83058000D03*
X140682000Y-83058000D03*
X151926000Y-89154000D03*
X149826000Y-89154000D03*
X151926000Y-92202000D03*
X149826000Y-92202000D03*
X142782000Y-92202000D03*
X140682000Y-92202000D03*
X147354000Y-83058000D03*
X145254000Y-83058000D03*
X147354000Y-95250000D03*
X145254000Y-95250000D03*
X142782000Y-95250000D03*
X140682000Y-95250000D03*
X151926000Y-83058000D03*
X149826000Y-83058000D03*
X142782000Y-86106000D03*
X140682000Y-86106000D03*
D15*
X131570000Y-97092500D03*
X131570000Y-95267500D03*
D14*
X142782000Y-89154000D03*
X140682000Y-89154000D03*
X161324000Y-89154000D03*
X159224000Y-89154000D03*
X161324000Y-86106000D03*
X159224000Y-86106000D03*
X151926000Y-86106000D03*
X149826000Y-86106000D03*
X156752000Y-89154000D03*
X154652000Y-89154000D03*
X147354000Y-92202000D03*
X145254000Y-92202000D03*
X147354000Y-89154000D03*
X145254000Y-89154000D03*
X156752000Y-86106000D03*
X154652000Y-86106000D03*
X161324000Y-92202000D03*
X159224000Y-92202000D03*
X156752000Y-95250000D03*
X154652000Y-95250000D03*
X156752000Y-83058000D03*
X154652000Y-83058000D03*
D16*
X131630945Y-99719055D03*
D17*
X131570000Y-97092500D02*
X131570000Y-99658110D01*
X131570000Y-99658110D02*
X131630945Y-99719055D01*
X161324000Y-95250000D02*
X161324000Y-96994000D01*
X161324000Y-96994000D02*
X156095566Y-102222434D01*
X161324000Y-83058000D02*
X161324000Y-95250000D01*
X141420456Y-102222434D02*
X140038445Y-103604445D01*
X156095566Y-102222434D02*
X141420456Y-102222434D01*
X142782000Y-95250000D02*
X145254000Y-95250000D01*
X149826000Y-95250000D02*
X147354000Y-95250000D01*
X154652000Y-95250000D02*
X151926000Y-95250000D01*
X159224000Y-95250000D02*
X156752000Y-95250000D01*
X145254000Y-92202000D02*
X142782000Y-92202000D01*
X149826000Y-92202000D02*
X147354000Y-92202000D01*
X154652000Y-92202000D02*
X151926000Y-92202000D01*
X159224000Y-92202000D02*
X156752000Y-92202000D01*
X142782000Y-89154000D02*
X145254000Y-89154000D01*
X149826000Y-89154000D02*
X147354000Y-89154000D01*
X154652000Y-89154000D02*
X151926000Y-89154000D01*
X159224000Y-89154000D02*
X156752000Y-89154000D01*
X145254000Y-86106000D02*
X142782000Y-86106000D01*
X147354000Y-86106000D02*
X149826000Y-86106000D01*
X154652000Y-86106000D02*
X151926000Y-86106000D01*
X159224000Y-86106000D02*
X156752000Y-86106000D01*
X142782000Y-83058000D02*
X145254000Y-83058000D01*
X147354000Y-83058000D02*
X149826000Y-83058000D01*
X151926000Y-83058000D02*
X154652000Y-83058000D01*
X156752000Y-83058000D02*
X159224000Y-83058000D01*
X140682000Y-95250000D02*
X136652000Y-95250000D01*
X131587500Y-95250000D02*
X136618000Y-95250000D01*
X131570000Y-95267500D02*
X131587500Y-95250000D01*
X140682000Y-95250000D02*
X140682000Y-83058000D01*
M02*
